<?xml version="1.0" encoding="UTF-8"?>
<svg xmlns="http://www.w3.org/2000/svg" viewBox="0 0 1500 1100" font-family="'Noto Sans CJK SC','PingFang SC','Microsoft YaHei',sans-serif">

<defs>
<style>
  .title { font-size: 30px; font-weight: 700; fill: #1F3864; }
  .subtitle { font-size: 14px; fill: #5F5E5A; font-style: italic; }
  .panel-title { font-size: 18px; font-weight: 700; }
  .panel-sub { font-size: 12px; }
  .label-name { font-size: 13px; font-weight: 700; }
  .label-sub { font-size: 11px; }
  .formula-text { font-size: 13px; fill: #1F3864; }
  .legend-text { font-size: 12px; fill: #404040; }
  .stage-label { font-size: 14px; font-weight: 700; fill: #1F3864; }
  .stage-desc { font-size: 11px; fill: #5F5E5A; }
</style>

<!-- ════════ 球面渐变 ════════ -->
<radialGradient id="sphereHealthy" cx="35%" cy="30%" r="75%">
  <stop offset="0%" stop-color="#E3F2FD" stop-opacity="0.95"/>
  <stop offset="40%" stop-color="#90CAF9" stop-opacity="0.8"/>
  <stop offset="80%" stop-color="#1976D2" stop-opacity="0.85"/>
  <stop offset="100%" stop-color="#0D47A1" stop-opacity="1"/>
</radialGradient>

<radialGradient id="sphereImpact" cx="35%" cy="30%" r="75%">
  <stop offset="0%" stop-color="#E3F2FD" stop-opacity="0.85"/>
  <stop offset="40%" stop-color="#90CAF9" stop-opacity="0.65"/>
  <stop offset="80%" stop-color="#1976D2" stop-opacity="0.8"/>
  <stop offset="100%" stop-color="#0D47A1" stop-opacity="1"/>
</radialGradient>

<!-- ════════ 韧性外壳 ════════ -->
<radialGradient id="resilienceHealthy" cx="50%" cy="50%" r="50%">
  <stop offset="0%" stop-color="#FFE082" stop-opacity="0"/>
  <stop offset="78%" stop-color="#FFE082" stop-opacity="0"/>
  <stop offset="84%" stop-color="#FFB300" stop-opacity="0.5"/>
  <stop offset="92%" stop-color="#FF8F00" stop-opacity="0.85"/>
  <stop offset="98%" stop-color="#E65100" stop-opacity="0.95"/>
  <stop offset="100%" stop-color="#BF360C" stop-opacity="1"/>
</radialGradient>

<radialGradient id="resilienceImpact" cx="50%" cy="50%" r="50%">
  <stop offset="0%" stop-color="#FFE082" stop-opacity="0"/>
  <stop offset="82%" stop-color="#FFE082" stop-opacity="0"/>
  <stop offset="88%" stop-color="#FFB300" stop-opacity="0.4"/>
  <stop offset="95%" stop-color="#FF8F00" stop-opacity="0.7"/>
  <stop offset="100%" stop-color="#E65100" stop-opacity="0.9"/>
</radialGradient>

<!-- ════════ 凹陷的"碗状"渐变（关键：径向渐变模拟凹陷的内部光照） ════════ -->
<radialGradient id="dentInside" cx="50%" cy="50%" r="50%">
  <stop offset="0%" stop-color="#3E0E07" stop-opacity="0.85"/>
  <stop offset="40%" stop-color="#8B2A1A" stop-opacity="0.65"/>
  <stop offset="75%" stop-color="#C62828" stop-opacity="0.4"/>
  <stop offset="100%" stop-color="#E53935" stop-opacity="0"/>
</radialGradient>

<!-- ════════ 凹陷的高光（碗口反光） ════════ -->
<linearGradient id="dentRim" x1="0%" y1="0%" x2="100%" y2="100%">
  <stop offset="0%" stop-color="#FFFFFF" stop-opacity="0.6"/>
  <stop offset="50%" stop-color="#FFFFFF" stop-opacity="0.2"/>
  <stop offset="100%" stop-color="#FFFFFF" stop-opacity="0"/>
</linearGradient>

<!-- ════════ 网格纹理 ════════ -->
<pattern id="netGrid" x="0" y="0" width="22" height="22" patternUnits="userSpaceOnUse">
  <path d="M 22,0 L 0,0 0,22" fill="none" stroke="#1565C0" stroke-width="0.7" opacity="0.5"/>
</pattern>

<marker id="arrowFlow" viewBox="0 0 10 10" refX="9" refY="5" markerWidth="6" markerHeight="6" orient="auto">
  <path d="M0,0 L10,5 L0,10 z" fill="#FF6F00"/>
</marker>
<marker id="arrowFlowBig" viewBox="0 0 10 10" refX="9" refY="5" markerWidth="7" markerHeight="7" orient="auto">
  <path d="M0,0 L10,5 L0,10 z" fill="#FF6F00"/>
</marker>
<marker id="arrowImpact" viewBox="0 0 10 10" refX="9" refY="5" markerWidth="9" markerHeight="9" orient="auto">
  <path d="M0,0 L10,5 L0,10 z" fill="#C62828"/>
</marker>

<filter id="vertexGlow">
  <feGaussianBlur stdDeviation="2.5" result="blur"/>
  <feMerge><feMergeNode in="blur"/><feMergeNode in="SourceGraphic"/></feMerge>
</filter>

<filter id="impactGlow">
  <feGaussianBlur stdDeviation="8" result="blur"/>
  <feMerge><feMergeNode in="blur"/><feMergeNode in="SourceGraphic"/></feMerge>
</filter>

<filter id="sphereShadow" x="-30%" y="-30%" width="160%" height="160%">
  <feGaussianBlur in="SourceAlpha" stdDeviation="6"/>
  <feOffset dx="3" dy="6" result="offsetblur"/>
  <feComponentTransfer><feFuncA type="linear" slope="0.4"/></feComponentTransfer>
  <feMerge><feMergeNode/><feMergeNode in="SourceGraphic"/></feMerge>
</filter>

<!-- ════════ 凹陷的弧形阴影（关键创新：用 path + 渐变模拟"碗") ════════ -->
<radialGradient id="bowlDent" cx="50%" cy="35%" r="55%">
  <stop offset="0%" stop-color="#FFCDD2" stop-opacity="0.95"/>
  <stop offset="30%" stop-color="#E57373" stop-opacity="0.85"/>
  <stop offset="60%" stop-color="#C62828" stop-opacity="0.75"/>
  <stop offset="85%" stop-color="#5D1A0F" stop-opacity="0.65"/>
  <stop offset="100%" stop-color="#3E0E07" stop-opacity="0.4"/>
</radialGradient>

</defs>

<rect width="1500" height="1100" fill="#FAFAF7"/>

<!-- ═════════════════ 标题 ═════════════════ -->
<text x="750" y="42" text-anchor="middle" class="title">城市韧性指数模型 · 球面厚度即韧性</text>
<text x="750" y="68" text-anchor="middle" class="subtitle">四类型突发共享资源池 · 网格球面承压 · 韧性 = 抗凹陷力 × 恢复速度 × 资源弹性</text>

<!-- ════════════════════════════════════════════════════════════════════════
     左侧：健康态（球面完整）
     ════════════════════════════════════════════════════════════════════════ -->
<g transform="translate(390, 380)">

<text x="0" y="-235" text-anchor="middle" class="panel-title" fill="#1B5E20">▎ 健康态 · 球面完整</text>
<text x="0" y="-213" text-anchor="middle" class="panel-sub" fill="#5F5E5A">韧性厚度饱满 · 资源均衡分布 · 抗压能力最强</text>

<!-- 韧性厚度外壳 -->
<circle cx="0" cy="0" r="200" fill="url(#resilienceHealthy)" filter="url(#sphereShadow)"/>
<circle cx="0" cy="0" r="200" fill="none" stroke="#BF360C" stroke-width="1.2" opacity="0.7"/>
<circle cx="0" cy="0" r="172" fill="none" stroke="#FF8F00" stroke-width="1" stroke-dasharray="2 2" opacity="0.85"/>

<!-- 球面 -->
<circle cx="0" cy="0" r="170" fill="url(#sphereHealthy)" stroke="#0D47A1" stroke-width="2"/>
<circle cx="0" cy="0" r="170" fill="url(#netGrid)" opacity="0.55"/>

<!-- 经纬线 -->
<ellipse cx="0" cy="0" rx="170" ry="42" fill="none" stroke="#0D47A1" stroke-width="1" opacity="0.4"/>
<ellipse cx="0" cy="0" rx="170" ry="85" fill="none" stroke="#0D47A1" stroke-width="1" opacity="0.3"/>
<ellipse cx="0" cy="0" rx="42" ry="170" fill="none" stroke="#0D47A1" stroke-width="1" opacity="0.4"/>
<ellipse cx="0" cy="0" rx="85" ry="170" fill="none" stroke="#0D47A1" stroke-width="1" opacity="0.3"/>

<!-- 球面高光 -->
<ellipse cx="-50" cy="-60" rx="55" ry="35" fill="#FFFFFF" opacity="0.25"/>

<!-- 中心资源池 -->
<circle cx="0" cy="0" r="16" fill="#FF6F00" stroke="#FFF" stroke-width="2"/>
<text x="0" y="3" text-anchor="middle" font-size="9" fill="#FFF" font-weight="700">资源池</text>

<!-- 正四面体 3D 投影 -->
<g fill="none">
  <line x1="-105" y1="-105" x2="105" y2="105" stroke="#1F3864" stroke-width="1.2" stroke-dasharray="3 2" opacity="0.45"/>
  <line x1="105" y1="-105" x2="-105" y2="105" stroke="#1F3864" stroke-width="1.2" stroke-dasharray="3 2" opacity="0.45"/>
  <line x1="-105" y1="-105" x2="105" y2="-105" stroke="#1F3864" stroke-width="2.2" opacity="0.7"/>
  <line x1="105" y1="-105" x2="105" y2="105" stroke="#1F3864" stroke-width="2.2" opacity="0.7"/>
  <line x1="105" y1="105" x2="-105" y2="105" stroke="#1F3864" stroke-width="2.2" opacity="0.7"/>
  <line x1="-105" y1="105" x2="-105" y2="-105" stroke="#1F3864" stroke-width="2.2" opacity="0.7"/>
</g>

<!-- 4 个顶点 -->
<g transform="translate(-105, -105)" filter="url(#vertexGlow)">
  <circle cx="0" cy="0" r="28" fill="#FFFFFF" stroke="#E53935" stroke-width="3"/>
  <text y="-2" text-anchor="middle" class="label-name" fill="#B71C1C" font-size="11">事故</text>
  <text y="11" text-anchor="middle" class="label-name" fill="#B71C1C" font-size="11">灾难</text>
</g>
<g transform="translate(105, -105)" filter="url(#vertexGlow)">
  <circle cx="0" cy="0" r="28" fill="#FFFFFF" stroke="#1976D2" stroke-width="3"/>
  <text y="-2" text-anchor="middle" class="label-name" fill="#0D47A1" font-size="11">自然</text>
  <text y="11" text-anchor="middle" class="label-name" fill="#0D47A1" font-size="11">灾害</text>
</g>
<g transform="translate(105, 105)" filter="url(#vertexGlow)">
  <circle cx="0" cy="0" r="28" fill="#FFFFFF" stroke="#43A047" stroke-width="3"/>
  <text y="-2" text-anchor="middle" class="label-name" fill="#1B5E20" font-size="11">公共</text>
  <text y="11" text-anchor="middle" class="label-name" fill="#1B5E20" font-size="11">卫生</text>
</g>
<g transform="translate(-105, 105)" filter="url(#vertexGlow)">
  <circle cx="0" cy="0" r="28" fill="#FFFFFF" stroke="#8E24AA" stroke-width="3"/>
  <text y="-2" text-anchor="middle" class="label-name" fill="#4A148C" font-size="11">社会</text>
  <text y="11" text-anchor="middle" class="label-name" fill="#4A148C" font-size="11">安全</text>
</g>

<!-- 韧性厚度标注 -->
<g transform="translate(212, 0)">
  <line x1="-10" y1="-14" x2="-10" y2="14" stroke="#E65100" stroke-width="2"/>
  <line x1="-22" y1="-14" x2="2" y2="-14" stroke="#E65100" stroke-width="2"/>
  <line x1="-22" y1="14" x2="2" y2="14" stroke="#E65100" stroke-width="2"/>
  <text x="10" y="-1" font-size="11" font-weight="700" fill="#BF360C">韧性</text>
  <text x="10" y="13" font-size="11" font-weight="700" fill="#BF360C">厚度</text>
  <text x="10" y="29" font-size="9" fill="#BF360C" font-style="italic">饱满</text>
</g>

<!-- 健康指数标签 -->
<g transform="translate(0, 245)">
<rect x="-100" y="-20" width="200" height="36" rx="18" fill="#43A047" filter="url(#sphereShadow)"/>
<text x="0" y="5" text-anchor="middle" font-size="15" font-weight="700" fill="#FFF">韧性指数 88 · 强韧</text>
</g>

</g>

<!-- ════════════════════════════════════════════════════════════════════════
     中间：转换箭头
     ════════════════════════════════════════════════════════════════════════ -->
<g transform="translate(750, 380)">

<g filter="url(#impactGlow)">
  <line x1="-90" y1="0" x2="90" y2="0" stroke="#C62828" stroke-width="4" marker-end="url(#arrowImpact)" opacity="0.95"/>
</g>

<text x="0" y="-30" text-anchor="middle" font-size="15" font-weight="700" fill="#C62828">⚡ 突发事件</text>
<text x="0" y="-12" text-anchor="middle" font-size="11" fill="#C62828">事故 / 灾害 / 卫生 / 社会</text>
<text x="0" y="22" text-anchor="middle" font-size="11" fill="#5F5E5A" font-style="italic">任意一类爆发</text>
<text x="0" y="38" text-anchor="middle" font-size="11" fill="#5F5E5A" font-style="italic">冲击该顶点方向</text>

</g>

<!-- ════════════════════════════════════════════════════════════════════════
     右侧：冲击态（球面凹陷·V4 重新设计）
     新方法：完整画球 + 在凹陷处叠加"碗状"渐变椭圆模拟凹陷
     ════════════════════════════════════════════════════════════════════════ -->
<g transform="translate(1110, 380)">

<text x="0" y="-235" text-anchor="middle" class="panel-title" fill="#B71C1C">▎ 冲击态 · 球面凹陷</text>
<text x="0" y="-213" text-anchor="middle" class="panel-sub" fill="#5F5E5A">事故灾难方向被压凹 · 资源紧急倾斜补充 · 韧性消耗中</text>

<!-- ━━━━━━━━ 第 1 层：金壳（薄了一些，整体保留） ━━━━━━━━ -->
<circle cx="0" cy="0" r="200" fill="url(#resilienceImpact)" filter="url(#sphereShadow)"/>

<!-- ━━━━━━━━ 第 2 层：完整球面（蓝色） ━━━━━━━━ -->
<circle cx="0" cy="0" r="170" fill="url(#sphereImpact)" stroke="#0D47A1" stroke-width="2"/>
<circle cx="0" cy="0" r="170" fill="url(#netGrid)" opacity="0.5"/>

<!-- ━━━━━━━━ 第 3 层：经纬线 ━━━━━━━━ -->
<ellipse cx="0" cy="0" rx="170" ry="42" fill="none" stroke="#0D47A1" stroke-width="1" opacity="0.35"/>
<ellipse cx="0" cy="0" rx="170" ry="85" fill="none" stroke="#0D47A1" stroke-width="1" opacity="0.25"/>
<ellipse cx="0" cy="0" rx="42" ry="170" fill="none" stroke="#0D47A1" stroke-width="1" opacity="0.35"/>
<ellipse cx="0" cy="0" rx="85" ry="170" fill="none" stroke="#0D47A1" stroke-width="1" opacity="0.25"/>

<!-- ━━━━━━━━ 第 4 层：凹陷（关键！用碗状渐变椭圆覆盖在事故灾难方向） ━━━━━━━━ -->
<!-- 凹陷主体：碗状渐变 -->
<g transform="translate(-105, -105) rotate(-45)">
  <!-- 外环：凹陷的"开口"（暗外圈） -->
  <ellipse cx="0" cy="0" rx="58" ry="42" fill="url(#bowlDent)"/>
  <!-- 中环：碗壁的过渡 -->
  <ellipse cx="0" cy="0" rx="48" ry="32" fill="url(#dentInside)" opacity="0.85"/>
  <!-- 内环：最深处（碗底）-->
  <ellipse cx="0" cy="0" rx="32" ry="20" fill="#3E0E07" opacity="0.85"/>
  <!-- 中心高光（让最底部有反光，强调"内"的感觉） -->
  <ellipse cx="-3" cy="-2" rx="16" ry="9" fill="#FFCDD2" opacity="0.45"/>
  <!-- 碗口高光（左上） -->
  <ellipse cx="-30" cy="-20" rx="22" ry="6" fill="url(#dentRim)"/>
  <!-- 碗口高光（右下，强化碗口 3D） -->
  <ellipse cx="28" cy="18" rx="20" ry="5" fill="url(#dentRim)" opacity="0.5"/>
</g>

<!-- 球面高光（左上保留少许，但主要在凹陷外）-->
<ellipse cx="40" cy="-50" rx="55" ry="35" fill="#FFFFFF" opacity="0.2"/>

<!-- ━━━━━━━━ 第 5 层：中心资源池 ━━━━━━━━ -->
<circle cx="0" cy="0" r="16" fill="#FF6F00" stroke="#FFF" stroke-width="2"/>
<text x="0" y="3" text-anchor="middle" font-size="9" fill="#FFF" font-weight="700">资源池</text>

<!-- ━━━━━━━━ 第 6 层：正四面体 ━━━━━━━━ -->
<g fill="none">
  <line x1="-105" y1="-105" x2="105" y2="105" stroke="#1F3864" stroke-width="1.2" stroke-dasharray="3 2" opacity="0.45"/>
  <line x1="105" y1="-105" x2="-105" y2="105" stroke="#1F3864" stroke-width="1.2" stroke-dasharray="3 2" opacity="0.45"/>
  <line x1="-105" y1="-105" x2="105" y2="-105" stroke="#1F3864" stroke-width="2.2" opacity="0.7"/>
  <line x1="105" y1="-105" x2="105" y2="105" stroke="#1F3864" stroke-width="2.2" opacity="0.7"/>
  <line x1="105" y1="105" x2="-105" y2="105" stroke="#1F3864" stroke-width="2.2" opacity="0.7"/>
  <line x1="-105" y1="105" x2="-105" y2="-105" stroke="#1F3864" stroke-width="2.2" opacity="0.7"/>
</g>

<!-- ━━━━━━━━ 第 7 层：资源流动箭头 ━━━━━━━━ -->
<line x1="80" y1="-90" x2="-72" y2="-115" stroke="#FF6F00" stroke-width="3" marker-end="url(#arrowFlow)" opacity="0.95"/>
<line x1="80" y1="90" x2="-78" y2="-80" stroke="#FF6F00" stroke-width="3" marker-end="url(#arrowFlow)" opacity="0.95"/>
<line x1="-80" y1="90" x2="-105" y2="-75" stroke="#FF6F00" stroke-width="3" marker-end="url(#arrowFlow)" opacity="0.95"/>

<!-- ━━━━━━━━ 第 8 层：4 个顶点 ━━━━━━━━ -->
<g transform="translate(-105, -105)" filter="url(#vertexGlow)">
  <circle cx="0" cy="0" r="34" fill="#FFCDD2" stroke="#C62828" stroke-width="4"/>
  <text y="-2" text-anchor="middle" class="label-name" fill="#B71C1C" font-size="11">事故</text>
  <text y="11" text-anchor="middle" class="label-name" fill="#B71C1C" font-size="11">灾难</text>
  <text y="-44" text-anchor="middle" font-size="13" fill="#C00000" font-weight="700">⚡ 爆发</text>
</g>
<g transform="translate(105, -105)" filter="url(#vertexGlow)">
  <circle cx="0" cy="0" r="24" fill="#FFFFFF" stroke="#1976D2" stroke-width="2"/>
  <text y="-2" text-anchor="middle" class="label-name" fill="#0D47A1" font-size="10">自然</text>
  <text y="10" text-anchor="middle" class="label-name" fill="#0D47A1" font-size="10">灾害</text>
</g>
<g transform="translate(105, 105)" filter="url(#vertexGlow)">
  <circle cx="0" cy="0" r="24" fill="#FFFFFF" stroke="#43A047" stroke-width="2"/>
  <text y="-2" text-anchor="middle" class="label-name" fill="#1B5E20" font-size="10">公共</text>
  <text y="10" text-anchor="middle" class="label-name" fill="#1B5E20" font-size="10">卫生</text>
</g>
<g transform="translate(-105, 105)" filter="url(#vertexGlow)">
  <circle cx="0" cy="0" r="24" fill="#FFFFFF" stroke="#8E24AA" stroke-width="2"/>
  <text y="-2" text-anchor="middle" class="label-name" fill="#4A148C" font-size="10">社会</text>
  <text y="10" text-anchor="middle" class="label-name" fill="#4A148C" font-size="10">安全</text>
</g>

<!-- 厚度变薄标注 -->
<g transform="translate(-225, -195)">
  <text x="0" y="0" font-size="11" font-weight="700" fill="#C00000">厚度变薄·凹陷</text>
  <line x1="80" y1="-3" x2="105" y2="20" stroke="#C00000" stroke-width="1.5" marker-end="url(#arrowImpact)"/>
</g>

<!-- 韧性厚度标注 -->
<g transform="translate(212, 0)">
  <line x1="-10" y1="-10" x2="-10" y2="10" stroke="#E65100" stroke-width="2"/>
  <line x1="-22" y1="-10" x2="2" y2="-10" stroke="#E65100" stroke-width="2"/>
  <line x1="-22" y1="10" x2="2" y2="10" stroke="#E65100" stroke-width="2"/>
  <text x="10" y="-1" font-size="11" font-weight="700" fill="#BF360C">韧性</text>
  <text x="10" y="13" font-size="11" font-weight="700" fill="#BF360C">厚度</text>
  <text x="10" y="29" font-size="9" fill="#C00000" font-style="italic">消耗中</text>
</g>

<!-- 状态标签 -->
<g transform="translate(0, 245)">
<rect x="-100" y="-20" width="200" height="36" rx="18" fill="#FB8C00" filter="url(#sphereShadow)"/>
<text x="0" y="5" text-anchor="middle" font-size="15" font-weight="700" fill="#FFF">韧性指数 56 · 薄弱</text>
</g>

</g>

<!-- ════════════════════════════════════════════════════════════════════════
     下半部分：4 阶段时序流程
     ════════════════════════════════════════════════════════════════════════ -->
<g transform="translate(40, 720)">

<rect x="0" y="0" width="1420" height="200" rx="10" fill="#FFFFFF" stroke="#BFBFBF" stroke-width="1"/>

<text x="20" y="32" font-size="17" font-weight="700" fill="#1F3864">📈 韧性运转的 4 个阶段（时间维度）</text>

<!-- 阶段 1：稳态 -->
<g transform="translate(60, 80)">
<circle cx="50" cy="50" r="48" fill="url(#resilienceHealthy)"/>
<circle cx="50" cy="50" r="42" fill="url(#sphereHealthy)" stroke="#0D47A1" stroke-width="1.5"/>
<circle cx="50" cy="50" r="42" fill="url(#netGrid)" opacity="0.4"/>
<ellipse cx="35" cy="38" rx="14" ry="9" fill="#FFFFFF" opacity="0.3"/>
<circle cx="50" cy="50" r="4" fill="#FF6F00"/>
<text x="50" y="125" text-anchor="middle" class="stage-label">阶段 1 · 稳态</text>
<text x="50" y="142" text-anchor="middle" class="stage-desc">球面完整</text>
<text x="50" y="156" text-anchor="middle" class="stage-desc">韧性饱满</text>
</g>

<line x1="180" y1="130" x2="220" y2="130" stroke="#1F3864" stroke-width="2" marker-end="url(#arrowFlowBig)"/>

<!-- 阶段 2：冲击（用同样的碗状渐变方法） -->
<g transform="translate(240, 80)">
<circle cx="50" cy="50" r="48" fill="url(#resilienceImpact)"/>
<circle cx="50" cy="50" r="42" fill="url(#sphereImpact)" stroke="#0D47A1" stroke-width="1.5"/>
<circle cx="50" cy="50" r="42" fill="url(#netGrid)" opacity="0.4"/>

<!-- 凹陷（小球版） -->
<g transform="translate(28, 28) rotate(-45)">
  <ellipse cx="0" cy="0" rx="14" ry="10" fill="url(#bowlDent)"/>
  <ellipse cx="0" cy="0" rx="9" ry="6" fill="#3E0E07" opacity="0.85"/>
  <ellipse cx="-1" cy="-1" rx="4" ry="2" fill="#FFCDD2" opacity="0.45"/>
</g>

<text x="22" y="6" text-anchor="middle" font-size="14" fill="#C00000" font-weight="700">⚡</text>
<circle cx="50" cy="50" r="4" fill="#FF6F00"/>
<text x="50" y="125" text-anchor="middle" class="stage-label">阶段 2 · 冲击</text>
<text x="50" y="142" text-anchor="middle" class="stage-desc">某顶点爆发</text>
<text x="50" y="156" text-anchor="middle" class="stage-desc">球面被压凹</text>
</g>

<line x1="360" y1="130" x2="400" y2="130" stroke="#1F3864" stroke-width="2" marker-end="url(#arrowFlowBig)"/>

<!-- 阶段 3：补充 -->
<g transform="translate(420, 80)">
<circle cx="50" cy="50" r="48" fill="url(#resilienceImpact)"/>
<circle cx="50" cy="50" r="42" fill="url(#sphereImpact)" stroke="#0D47A1" stroke-width="1.5"/>
<circle cx="50" cy="50" r="42" fill="url(#netGrid)" opacity="0.4"/>

<!-- 凹陷恢复中（变浅） -->
<g transform="translate(28, 28) rotate(-45)">
  <ellipse cx="0" cy="0" rx="11" ry="7" fill="url(#bowlDent)" opacity="0.7"/>
  <ellipse cx="0" cy="0" rx="6" ry="4" fill="#8B2A1A" opacity="0.6"/>
</g>

<!-- 资源流动箭头 -->
<line x1="68" y1="32" x2="34" y2="22" stroke="#FF6F00" stroke-width="2" marker-end="url(#arrowFlow)"/>
<line x1="58" y1="68" x2="30" y2="30" stroke="#FF6F00" stroke-width="2" marker-end="url(#arrowFlow)"/>
<line x1="20" y1="62" x2="26" y2="32" stroke="#FF6F00" stroke-width="2" marker-end="url(#arrowFlow)"/>

<circle cx="50" cy="50" r="4" fill="#FF6F00"/>
<text x="50" y="125" text-anchor="middle" class="stage-label">阶段 3 · 补充</text>
<text x="50" y="142" text-anchor="middle" class="stage-desc">资源紧急倾斜</text>
<text x="50" y="156" text-anchor="middle" class="stage-desc">指挥能力漂移</text>
</g>

<line x1="540" y1="130" x2="580" y2="130" stroke="#1F3864" stroke-width="2" marker-end="url(#arrowFlowBig)"/>

<!-- 阶段 4：恢复 -->
<g transform="translate(600, 80)">
<circle cx="50" cy="50" r="48" fill="url(#resilienceHealthy)"/>
<circle cx="50" cy="50" r="42" fill="url(#sphereHealthy)" stroke="#0D47A1" stroke-width="1.5"/>
<circle cx="50" cy="50" r="42" fill="url(#netGrid)" opacity="0.4"/>
<ellipse cx="35" cy="38" rx="14" ry="9" fill="#FFFFFF" opacity="0.3"/>
<!-- 凹陷处的"愈合标记" -->
<circle cx="22" cy="22" r="5" fill="#FFD54F" opacity="0.7"/>
<text x="22" y="26" text-anchor="middle" font-size="9" fill="#E65100" font-weight="700">✓</text>
<circle cx="50" cy="50" r="4" fill="#FF6F00"/>
<text x="50" y="125" text-anchor="middle" class="stage-label">阶段 4 · 恢复</text>
<text x="50" y="142" text-anchor="middle" class="stage-desc">球面回弹</text>
<text x="50" y="156" text-anchor="middle" class="stage-desc">本体回写演化</text>
</g>

<!-- 时间轴 -->
<g transform="translate(60, 195)">
  <line x1="0" y1="0" x2="640" y2="0" stroke="#1F3864" stroke-width="1.5"/>
  <text x="320" y="-5" text-anchor="middle" font-size="11" fill="#5F5E5A" font-style="italic">→ 时间</text>
</g>

<!-- 韧性指数变化曲线 -->
<g transform="translate(800, 50)">

<text x="160" y="0" text-anchor="middle" font-size="14" font-weight="700" fill="#1F3864">韧性指数变化曲线</text>

<line x1="20" y1="20" x2="20" y2="130" stroke="#1F3864" stroke-width="1.5"/>
<line x1="20" y1="130" x2="320" y2="130" stroke="#1F3864" stroke-width="1.5"/>

<text x="14" y="24" text-anchor="end" font-size="10" fill="#5F5E5A">100</text>
<text x="14" y="78" text-anchor="end" font-size="10" fill="#5F5E5A">50</text>
<text x="14" y="133" text-anchor="end" font-size="10" fill="#5F5E5A">0</text>

<text x="55" y="148" text-anchor="middle" font-size="10" fill="#5F5E5A">稳态</text>
<text x="125" y="148" text-anchor="middle" font-size="10" fill="#5F5E5A">冲击</text>
<text x="200" y="148" text-anchor="middle" font-size="10" fill="#5F5E5A">补充</text>
<text x="285" y="148" text-anchor="middle" font-size="10" fill="#5F5E5A">恢复</text>

<rect x="20" y="20" width="300" height="40" fill="#43A047" opacity="0.15"/>
<rect x="20" y="60" width="300" height="35" fill="#FDD835" opacity="0.15"/>
<rect x="20" y="95" width="300" height="35" fill="#E53935" opacity="0.15"/>

<path d="M 20,32 L 90,33 Q 105,33 115,80 L 130,105 Q 150,108 175,90 Q 220,70 270,42 L 320,32" 
      fill="none" stroke="#1F3864" stroke-width="2.5"/>

<circle cx="55" cy="32" r="4" fill="#43A047"/>
<text x="55" y="22" text-anchor="middle" font-size="10" fill="#1B5E20" font-weight="700">88</text>

<circle cx="130" cy="105" r="4" fill="#E53935"/>
<text x="130" y="120" text-anchor="middle" font-size="10" fill="#B71C1C" font-weight="700">42</text>

<circle cx="200" cy="78" r="4" fill="#FB8C00"/>
<text x="200" y="68" text-anchor="middle" font-size="10" fill="#E65100" font-weight="700">62</text>

<circle cx="295" cy="38" r="4" fill="#43A047"/>
<text x="295" y="28" text-anchor="middle" font-size="10" fill="#1B5E20" font-weight="700">85</text>

<line x1="130" y1="33" x2="130" y2="105" stroke="#E53935" stroke-width="1" stroke-dasharray="2 2"/>
<text x="345" y="70" font-size="11" fill="#C00000" font-weight="700">↕ 凹陷深度</text>
<text x="345" y="86" font-size="10" fill="#C00000" font-style="italic">越浅越好</text>

</g>

</g>

<!-- ════════════════════════════════════════════════════════════════════════
     底部：城市韧性公式
     ════════════════════════════════════════════════════════════════════════ -->
<g transform="translate(40, 940)">

<rect x="0" y="0" width="1420" height="120" rx="8" fill="#FBF5EA" stroke="#BA7517" stroke-width="1.5"/>

<text x="20" y="30" font-size="16" font-weight="700" fill="#633806">📐 城市韧性 = 抗凹陷力 × 恢复速度 × 资源弹性</text>

<g transform="translate(30, 56)">
<text x="0" y="0" class="formula-text" font-weight="700">维度一 · 抗凹陷力</text>
<text x="0" y="20" class="legend-text">球面厚度 / 突发冲击</text>
<text x="0" y="40" class="legend-text" fill="#5F5E5A" font-style="italic">资源储备 + 网格密度 + 基础设施冗余</text>
<text x="0" y="58" class="legend-text" fill="#1B5E20" font-weight="600">→ 越厚，凹陷越浅</text>
</g>

<g transform="translate(490, 56)">
<text x="0" y="0" class="formula-text" font-weight="700">维度二 · 恢复速度</text>
<text x="0" y="20" class="legend-text">凹陷恢复时间</text>
<text x="0" y="40" class="legend-text" fill="#5F5E5A" font-style="italic">指挥能力包漂移度 + 资源调度效率</text>
<text x="0" y="58" class="legend-text" fill="#1B5E20" font-weight="600">→ 越快，回到原状越短</text>
</g>

<g transform="translate(950, 56)">
<text x="0" y="0" class="formula-text" font-weight="700">维度三 · 资源弹性</text>
<text x="0" y="20" class="legend-text">跨类型资源调动能力</text>
<text x="0" y="40" class="legend-text" fill="#5F5E5A" font-style="italic">事故/灾害/卫生/社会四类共享</text>
<text x="0" y="58" class="legend-text" fill="#1B5E20" font-weight="600">→ 越通，跨类支援越畅</text>
</g>

</g>

<!-- ════════════════════════════════════════════════════════════════════════
     底部标语
     ════════════════════════════════════════════════════════════════════════ -->
<g transform="translate(40, 1075)">
<rect x="0" y="0" width="1420" height="22" fill="#1F3864" rx="3"/>
<text x="710" y="16" text-anchor="middle" font-size="13" font-weight="700" fill="#FFFFFF">
  城市韧性 = 球面厚度 · 怎么登都没事，还能恢复，这就是韧性
</text>
</g>

</svg>
